<?xml version="1.0" encoding="UTF-8"?>
<svg width="120px" height="120px" viewBox="0 0 120 120" version="1.1" xmlns="http://www.w3.org/2000/svg">
  <g stroke="none" stroke-width="1" fill="none" fill-rule="evenodd">
    <path d="M60,10 C87.6142375,10 110,32.3857625 110,60 C110,87.6142375 87.6142375,110 60,110 C32.3857625,110 10,87.6142375 10,60 C10,32.3857625 32.3857625,10 60,10 Z M60,30 C67.3154445,30 74.1155248,32.7053028 79.3713592,37.4635114 L67.7942286,49.0406421 C65.5396131,47.0739373 62.639496,45.9090909 59.5,45.9090909 C56.5478195,45.9090909 53.8169843,46.9325678 51.6215385,48.6891598 L40.6266696,37.4802481 C45.8806433,32.7144289 52.6815555,30 60,30 Z M30,60 C30,52.6815555 32.7144289,45.8806433 37.4802481,40.6266696 L48.6891598,51.6215385 C46.9325678,53.8169843 45.9090909,56.5478195 45.9090909,59.5 C45.9090909,62.639496 47.0739373,65.5396131 49.0406421,67.7942286 L37.4635114,79.3713592 C32.7053028,74.1155248 30,67.3154445 30,60 Z M60,90 C52.6815555,90 45.8806433,87.2855711 40.6266696,82.5197519 L51.6215385,71.3108402 C53.8169843,73.0674322 56.5478195,74.0909091 59.5,74.0909091 C62.639496,74.0909091 65.5396131,72.9260627 67.7942286,70.9593579 L79.3713592,82.5364886 C74.1155248,87.2946972 67.3154445,90 60,90 Z" fill="#0aff0a" fill-rule="nonzero"></path>
    <circle fill="#0aff0a" cx="60" cy="60" r="10"></circle>
  </g>
</svg> 